<?xml version="1.0" standalone="no"?>
<!DOCTYPE svg PUBLIC "-//W3C//DTD SVG 20010904//EN"
 "http://www.w3.org/TR/2001/REC-SVG-20010904/DTD/svg10.dtd">
<svg version="1.0" xmlns="http://www.w3.org/2000/svg"
 width="781.000000pt" height="265.000000pt" viewBox="0 0 781.000000 265.000000"
 preserveAspectRatio="xMidYMid meet">

<g transform="translate(0.000000,265.000000) scale(0.100000,-0.100000)"
fill="#000000" stroke="none">
<path d="M0 1325 l0 -1325 3905 0 3905 0 0 1325 0 1325 -3905 0 -3905 0 0
-1325z m3247 385 c17 -85 38 -182 45 -215 l14 -60 43 218 44 217 48 0 49 0 0
-285 0 -285 -35 0 -35 0 -1 198 -1 197 -40 -197 -41 -198 -33 0 c-38 0 -31
-18 -79 210 -20 96 -39 177 -41 179 -2 2 -4 -84 -4 -192 l0 -197 -30 0 -30 0
0 286 0 285 48 -3 47 -3 32 -155z m363 -33 l5 -188 63 190 63 191 40 0 39 0 0
-285 0 -285 -30 0 -30 0 0 207 c0 118 -4 203 -9 198 -5 -6 -32 -84 -60 -175
-29 -91 -57 -180 -62 -197 -10 -30 -14 -33 -50 -33 l-39 0 4 108 c3 59 5 187
5 285 l1 178 28 -3 27 -3 5 -188z m491 155 c28 -31 29 -36 29 -130 0 -78 -4
-103 -20 -129 -20 -34 -66 -53 -127 -53 l-33 0 0 -110 0 -110 -35 0 -35 0 0
286 0 286 96 -4 c94 -3 96 -4 125 -36z m514 -296 c11 -16 15 -41 13 -72 -3
-45 -5 -48 -38 -57 -49 -13 -85 -41 -105 -84 -23 -50 -22 -49 -45 -28 -18 16
-20 31 -20 142 l0 123 90 0 c84 0 91 -2 105 -24z m733 18 c17 -5 22 -14 22
-40 0 -19 -4 -34 -10 -34 -18 0 -11 -15 12 -25 13 -6 24 -17 26 -25 2 -13 -17
-18 -97 -27 -54 -7 -157 -26 -228 -43 -218 -52 -203 -46 -203 -86 0 -19 7 -48
15 -64 l16 -30 -71 0 c-67 0 -70 1 -60 19 23 45 10 112 -33 158 -11 13 -19 24
-16 26 6 6 225 92 319 127 97 36 254 58 308 44z m560 -161 l53 -6 -20 -21
c-11 -12 -27 -38 -35 -58 -12 -28 -24 -39 -53 -49 -60 -19 -133 -58 -140 -74
-4 -11 -23 -15 -72 -15 l-66 0 6 77 c5 80 -4 132 -24 135 -7 0 8 4 33 8 60 9
252 11 318 3z m-1211 -23 c115 -70 63 -250 -72 -250 -134 0 -186 168 -78 249
37 27 107 28 150 1z m833 5 c16 -8 31 -23 33 -32 7 -25 1 -138 -7 -152 -8 -12
-407 -16 -554 -4 -92 7 -108 18 -114 78 l-3 30 110 28 c256 65 469 86 535 52z
m588 -1 c46 -27 66 -64 66 -119 0 -55 -20 -92 -66 -119 -34 -21 -103 -20 -139
1 -29 17 -69 84 -69 116 0 36 33 97 63 116 39 25 108 27 145 5z m242 -35 c38
-8 49 -14 41 -22 -6 -6 -11 -26 -11 -44 l0 -33 70 0 70 0 0 -40 0 -40 -114 0
c-66 0 -117 4 -121 10 -3 6 -29 10 -57 10 -44 0 -49 2 -43 18 15 40 16 71 1
106 -9 21 -16 40 -16 42 0 9 132 3 180 -7z m-4855 -138 c6 -11 105 -522 105
-546 0 -12 -8 -15 -32 -13 -31 3 -33 6 -42 56 l-9 52 -68 0 c-74 0 -71 2 -85
-72 -6 -35 -9 -38 -39 -38 -26 0 -32 4 -29 18 5 21 104 542 104 548 0 9 89 3
95 -5z m355 -9 c25 -12 39 -28 48 -57 19 -55 9 -141 -18 -170 l-21 -23 24 -26
c49 -53 47 -197 -3 -248 -27 -27 -32 -28 -129 -28 l-101 0 0 278 c0 153 3 282
7 285 14 15 158 7 193 -11z m378 -14 c3 -26 1 -27 -50 -30 l-53 -3 -3 -252 -2
-253 -35 0 -35 0 0 255 0 255 -50 0 c-49 0 -50 1 -50 30 l0 31 138 -3 137 -3
3 -27z m251 16 c44 -31 51 -69 51 -275 0 -156 -3 -197 -16 -225 -21 -44 -60
-64 -125 -64 -46 0 -55 4 -84 34 -40 43 -45 71 -45 261 1 179 8 221 50 258 26
23 39 27 88 27 37 0 66 -6 81 -16z m339 -16 l3 -28 -80 0 c-69 0 -80 -3 -86
-19 -3 -10 -5 -94 -4 -187 1 -93 2 -199 1 -236 l-2 -68 -30 0 -30 0 0 285 0
286 113 -3 112 -3 3 -27z m274 3 l33 -29 0 -231 0 -231 -27 -26 c-35 -35 -118
-45 -167 -19 -54 27 -61 60 -61 275 0 258 15 290 132 290 50 0 62 -4 90 -29z
m166 -103 l3 -128 64 0 64 0 3 128 3 127 33 3 32 3 0 -285 0 -286 -35 0 -35 0
0 125 0 125 -65 0 -65 0 0 -125 0 -125 -35 0 -35 0 0 278 c0 153 3 282 7 286
4 4 19 6 33 4 l25 -3 3 -127z m471 116 c44 -31 51 -69 51 -275 0 -156 -3 -197
-16 -225 -21 -44 -60 -64 -123 -64 -69 0 -110 36 -122 106 -10 65 -10 317 0
374 14 68 55 100 129 100 37 0 66 -6 81 -16z m181 -112 l5 -123 68 125 c62
114 71 126 96 126 15 0 30 -3 33 -6 3 -3 -26 -62 -64 -131 l-70 -125 33 -71
c17 -40 49 -107 71 -149 21 -43 38 -80 38 -83 0 -3 -16 -5 -35 -5 -36 0 -36 0
-92 117 -51 107 -56 116 -69 98 -10 -13 -14 -49 -14 -117 l0 -98 -35 0 -35 0
0 286 0 285 33 -3 32 -3 5 -123z"/>
<path d="M3950 1695 l0 -115 34 0 c19 0 44 9 57 19 22 17 24 27 24 101 0 94
-11 110 -77 110 l-38 0 0 -115z"/>
<path d="M4591 1334 c-40 -17 -63 -65 -49 -106 31 -89 168 -70 168 24 0 67
-58 108 -119 82z m97 -53 c20 -56 -33 -109 -89 -89 -34 12 -50 51 -37 90 19
54 107 53 126 -1z"/>
<path d="M5999 1327 c-44 -34 -49 -83 -13 -126 20 -25 34 -31 64 -31 30 0 44
6 64 31 36 43 31 92 -13 126 -21 16 -81 16 -102 0z m104 -29 c30 -36 20 -81
-24 -103 -55 -29 -114 23 -93 83 18 52 80 62 117 20z"/>
<path d="M1426 963 c-14 -76 -26 -142 -26 -146 0 -4 25 -7 55 -7 46 0 55 3 55
18 -1 23 -48 264 -54 269 -2 2 -15 -58 -30 -134z"/>
<path d="M1730 1054 l0 -97 43 7 c61 9 80 37 75 105 -6 63 -23 81 -80 81 l-38
0 0 -96z"/>
<path d="M1730 806 l0 -106 50 0 c67 0 84 25 78 110 -5 72 -17 86 -80 95 l-48
7 0 -106z"/>
<path d="M2359 1133 c-20 -23 -25 -377 -6 -413 18 -36 78 -41 101 -8 23 33 24
383 0 416 -19 27 -75 30 -95 5z"/>
<path d="M2966 1135 c-14 -14 -16 -45 -16 -215 0 -217 3 -230 58 -230 38 0 51
11 62 51 14 48 12 326 -3 369 -10 30 -17 35 -48 38 -24 2 -42 -3 -53 -13z"/>
<path d="M3609 1133 c-20 -23 -25 -377 -6 -413 18 -36 78 -41 101 -8 23 33 24
383 0 416 -19 27 -75 30 -95 5z"/>
</g>
</svg>
